<mxfile host="app.diagrams.net" modified="2024-05-18T02:22:10.995Z" agent="Mozilla/5.0 (Windows NT 10.0; Win64; x64) AppleWebKit/537.36 (KHTML, like Gecko) Chrome/123.0.0.0 Safari/537.36 OPR/109.0.0.0" version="24.4.4" etag="j6rmr0cKmt0RWcbQFyuo" type="github">
  <diagram name="PÃ¡gina-1" id="FN1W2snCmmNbTDyE0-3d">
    <mxGraphModel>
      <root>
        <mxCell id="0" />
        <mxCell id="1" parent="0" />
      </root>
    </mxGraphModel>
  </diagram>
</mxfile>
